<?xml version="1.0" encoding="utf-8"?>
<!-- Generator: Adobe Illustrator 25.4.1, SVG Export Plug-In . SVG Version: 6.00 Build 0)  -->
<svg version="1.1" id="Capa_1" xmlns="http://www.w3.org/2000/svg" xmlns:xlink="http://www.w3.org/1999/xlink" x="0px" y="0px"
	 viewBox="0 0 290 32" style="enable-background:new 0 0 290 32;" xml:space="preserve">
<style type="text/css">
	.st0{fill:#37B34A;}
</style>
<g>
	<g>
		<path d="M80,31.1h-8.6l-4.1-6.8h-3v6.8h-7.9V1.6h11.2c7.9,0,12.4,5,12.4,11.6c0,4.3-1.9,7.6-5.3,9.6L80,31.1z M67.2,18.1
			c3.6,0,4.9-2,4.9-4.9c0-2.9-1.3-4.9-4.9-4.9h-2.9v9.8H67.2z"/>
	</g>
	<g>
		<g>
			<path class="st0" d="M218.8,31.1h-8.6l-4.1-6.8h-3v6.8h-7.9V1.6h11.2c7.9,0,12.4,5,12.4,11.6c0,4.3-1.9,7.6-5.3,9.6L218.8,31.1z
				 M206,18.1c3.6,0,4.9-2,4.9-4.9c0-2.9-1.3-4.9-4.9-4.9h-2.9v9.8H206z"/>
		</g>
	</g>
	<path d="M12.9,31.6c-0.1,0.3-0.4,0.3-0.5,0L0,1.7h8.3l5.5,13.9l6.3-14.4c0.1-0.2,0.3-0.2,0.3,0l6.6,14.4l5.3-13.9h7.9L28.1,31.6
		c-0.1,0.3-0.3,0.3-0.5,0l-7.4-15.8L12.9,31.6z"/>
	<path d="M43.2,1.6h7.9v29.5h-7.9V1.6z"/>
	<path d="M83.7,1.6h20.7v6.6H91.6v6.9h10.7v6.3H91.6v3.1h13.4v6.6H83.7V1.6z"/>
	<path class="st0" d="M247.9,1.2c0.1-0.3,0.4-0.3,0.5,0l12.4,29.9h-8.3L247,17.2l-6.3,14.4c-0.1,0.2-0.3,0.2-0.3,0l-6.6-14.4
		l-5.3,13.9h-7.9l12.2-29.9c0.1-0.3,0.3-0.3,0.5,0l7.4,15.8L247.9,1.2z"/>
	<path class="st0" d="M155.6,1.6h7.6v29.5h-7.6v-9.4h-9.9v9.4h-7.6V1.6h7.6v13.5h9.9V1.6z"/>
	<path class="st0" d="M173.2,31.5h-7.4l13.8-30c0.1-0.3,0.4-0.3,0.5,0l13.8,30h-7.9L185,29c0,0-10.7,0-10.7,0L173.2,31.5z
		 M179.6,16.2l-2.8,6.9h5.8L179.6,16.2z"/>
	<path class="st0" d="M269.3,31.5h-7.4l13.8-30c0.1-0.3,0.4-0.3,0.5,0l13.8,30h-7.9L281,29c0,0-10.7,0-10.7,0L269.3,31.5z
		 M275.6,16.2l-2.8,6.9h5.8L275.6,16.2z"/>
	<g>
		<path d="M119.5,31.3h-7.7V1.4h10.9c7.7,0,12.1,5.1,12.1,11.7c0,6.1-3.5,11.7-10.1,11.7c-0.6,0-1.3,0-2,0h-3.2V31.3z M122.3,17.8
			c3.4,0,4.7-2,4.7-4.9s-1.3-4.9-4.7-4.9h-2.8v9.8H122.3z"/>
		<g>
			<g>
				<path class="st0" d="M124.9,17.5l0,7.3h-5.2l0,6.6h-7.8v-6.7h-5.3v-7.2h5.3v-5.9h7.6v5.9"/>
			</g>
		</g>
	</g>
</g>
</svg>
