<svg id="bdd71d81-ee26-400a-91cb-e7f631bb4179" data-name="Layer 1" xmlns="http://www.w3.org/2000/svg" viewBox="0 0 145.65 39.57"><defs><style>.a9961dd0-7e6f-41b9-8152-a28adddb6ff8{fill:#37b34a;}</style></defs><title>logo, tienda online</title><path d="M39.9,20.19H35.74l-2-3.3H32.3v3.3H28.46V5.84H33.9c3.87,0,6,2.44,6,5.63a5,5,0,0,1-2.6,4.64Zm-6.19-6.36a2.1,2.1,0,0,0,2.37-2.36,2.11,2.11,0,0,0-2.37-2.38H32.3v4.74Z"/><path class="a9961dd0-7e6f-41b9-8152-a28adddb6ff8" d="M107.35,20.19h-4.16l-2-3.3H99.75v3.3H95.91V5.84h5.44c3.87,0,6,2.44,6,5.63a5,5,0,0,1-2.6,4.64Zm-6.19-6.36a2.1,2.1,0,0,0,2.37-2.36,2.11,2.11,0,0,0-2.37-2.38H99.75v4.74Z"/><path d="M7.32,20.78c-.06.15-.19.15-.25,0l-6-14.52h4L7.76,13l3.08-7c0-.11.13-.11.17,0l3.23,7,2.55-6.73h3.84L14.7,20.78c-.06.17-.16.17-.25,0l-3.59-7.7Z"/><path d="M22.05,6.26h3.84V20.61H22.05Z"/><path d="M41.73,6.26H51.8V9.49H45.57v3.33h5.19v3.06H45.57v1.5h6.52v3.23H41.73Z"/><path class="a9961dd0-7e6f-41b9-8152-a28adddb6ff8" d="M121.53,5.64c.06-.15.19-.15.25,0l6,14.52h-4l-2.68-6.73-3.09,7c0,.11-.12.11-.16,0l-3.23-7-2.56,6.73h-3.84l5.93-14.52c.07-.17.17-.17.26,0l3.58,7.7Z"/><path d="M59.08,20.34H55.39V5.82h5.3c3.77,0,5.89,2.48,5.89,5.7,0,3-1.66,5.74-4.87,5.74-.3,0-.69-.06-1-.06H59.08Zm1.58-6.44a3,3,0,0,0,1.05-.17c.88-.34,1-1.24,1-2.28a2.08,2.08,0,0,0-2.28-2.38H59.08v4.74Z"/><path class="a9961dd0-7e6f-41b9-8152-a28adddb6ff8" d="M76.64,5.88h3.69V20.22H76.64V15.66h-4.8v4.56h-3.7V5.88h3.7v6.55h4.8Z"/><path class="a9961dd0-7e6f-41b9-8152-a28adddb6ff8" d="M85.23,20.22H81.61l6.73-14.6c.06-.14.18-.14.24,0l6.7,14.6H91.47L90.94,19h-5.2Zm3.07-7.43-1.39,3.33h2.81Z"/><path class="a9961dd0-7e6f-41b9-8152-a28adddb6ff8" d="M131.89,20.22h-3.61L135,5.62c.06-.14.19-.14.25,0l6.7,14.6h-3.82L137.6,19h-5.2ZM135,12.79l-1.38,3.33h2.8Z"/><path class="a9961dd0-7e6f-41b9-8152-a28adddb6ff8" d="M61.71,13.73v3.53H59.1l0,3.34H55.36l0-3.4H52.81V13.73h2.58V10.87h3.69v2.85Z"/><path d="M6.5,25.22H4.37v-.77H9.56v.77H7.42v6.24H6.5Z"/><path d="M10.62,25.57a.54.54,0,0,1-.55-.56.57.57,0,1,1,.56.56Zm-.43,5.89v-5h.91v5Z"/><path d="M13.14,29.11a1.6,1.6,0,0,0,1.72,1.74,3.35,3.35,0,0,0,1.39-.26l.17.65a4,4,0,0,1-1.69.32A2.34,2.34,0,0,1,12.26,29a2.45,2.45,0,0,1,2.37-2.71,2.12,2.12,0,0,1,2.07,2.37,2.39,2.39,0,0,1,0,.43Zm2.68-.66A1.31,1.31,0,0,0,14.56,27a1.52,1.52,0,0,0-1.41,1.49Z"/><path d="M17.83,27.79c0-.53,0-.95,0-1.37h.81l.06.82h0a1.87,1.87,0,0,1,1.66-.93c.7,0,1.78.41,1.78,2.14v3h-.91v-2.9c0-.82-.31-1.5-1.17-1.5a1.32,1.32,0,0,0-1.23.93,1.44,1.44,0,0,0-.06.43v3h-.92Z"/><path d="M28,24.07v6.09c0,.45,0,1,0,1.3h-.82l0-.87h0a1.86,1.86,0,0,1-1.71,1A2.31,2.31,0,0,1,23.24,29a2.41,2.41,0,0,1,2.26-2.7,1.67,1.67,0,0,1,1.52.76h0v-3ZM27,28.47a1.72,1.72,0,0,0,0-.39,1.34,1.34,0,0,0-1.32-1c-.95,0-1.51.83-1.51,1.93s.51,1.88,1.49,1.88A1.39,1.39,0,0,0,27,29.73a1.48,1.48,0,0,0,0-.38Z"/><path d="M33,30.25a7.36,7.36,0,0,0,.08,1.21h-.83l-.08-.64h0a1.85,1.85,0,0,1-1.54.75,1.43,1.43,0,0,1-1.54-1.44c0-1.22,1.08-1.89,3-1.88v-.1A1,1,0,0,0,31,27a2.46,2.46,0,0,0-1.32.38l-.21-.61a3.18,3.18,0,0,1,1.67-.44c1.55,0,1.92,1.05,1.92,2.06Zm-.89-1.36c-1,0-2.13.16-2.13,1.13a.8.8,0,0,0,.85.88,1.27,1.27,0,0,0,1.24-.85.92.92,0,0,0,0-.29Z"/><path d="M38.75,31.57A2.4,2.4,0,0,1,36.33,29a2.46,2.46,0,0,1,2.5-2.67,2.38,2.38,0,0,1,2.42,2.58,2.46,2.46,0,0,1-2.49,2.68Zm0-.68c.87,0,1.53-.83,1.53-2,0-.85-.43-1.93-1.51-1.93s-1.54,1-1.54,2,.62,1.94,1.51,1.94Z"/><path d="M42.41,27.79c0-.53,0-.95,0-1.37h.81l0,.82h0a1.88,1.88,0,0,1,1.67-.93c.69,0,1.77.41,1.77,2.14v3h-.91v-2.9c0-.82-.3-1.5-1.17-1.5a1.3,1.3,0,0,0-1.22.93,1.18,1.18,0,0,0-.07.43v3h-.91Z"/><path d="M48.18,24.07h.92v7.39h-.92Z"/><path d="M51.07,25.57a.54.54,0,0,1-.55-.56.57.57,0,1,1,.56.56Zm-.43,5.89v-5h.91v5Z"/><path d="M53.07,27.79c0-.53,0-.95,0-1.37h.81l0,.82h0a1.89,1.89,0,0,1,1.67-.93c.7,0,1.78.41,1.78,2.14v3h-.92v-2.9c0-.82-.3-1.5-1.16-1.5a1.31,1.31,0,0,0-1.23.93,1.44,1.44,0,0,0-.06.43v3h-.92Z"/><path d="M59.37,29.11a1.6,1.6,0,0,0,1.71,1.74,3.41,3.41,0,0,0,1.4-.26l.16.65a4,4,0,0,1-1.68.32A2.35,2.35,0,0,1,58.48,29a2.45,2.45,0,0,1,2.37-2.71,2.12,2.12,0,0,1,2.07,2.37,1.72,1.72,0,0,1,0,.43ZM62,28.45A1.31,1.31,0,0,0,60.78,27a1.51,1.51,0,0,0-1.4,1.49Z"/><path d="M70.61,24.07v6.09c0,.45,0,1,0,1.3h-.82l0-.87h0a1.85,1.85,0,0,1-1.71,1A2.3,2.3,0,0,1,65.9,29a2.41,2.41,0,0,1,2.26-2.7,1.67,1.67,0,0,1,1.52.76h0v-3Zm-.91,4.4a1.72,1.72,0,0,0,0-.39,1.36,1.36,0,0,0-1.33-1c-.94,0-1.51.83-1.51,1.93s.51,1.88,1.49,1.88a1.4,1.4,0,0,0,1.35-1.11,1.48,1.48,0,0,0,0-.38Z"/><path d="M72.65,29.11a1.6,1.6,0,0,0,1.72,1.74,3.35,3.35,0,0,0,1.39-.26l.17.65a4.06,4.06,0,0,1-1.69.32A2.34,2.34,0,0,1,71.77,29a2.45,2.45,0,0,1,2.37-2.71,2.12,2.12,0,0,1,2.07,2.37,2.39,2.39,0,0,1,0,.43Zm2.67-.66A1.3,1.3,0,0,0,74.07,27a1.51,1.51,0,0,0-1.41,1.49Z"/><path d="M79.55,27.79c0-.53,0-.95,0-1.37h.81l0,.81h0A1.75,1.75,0,0,1,82,26.31a1.48,1.48,0,0,1,1.42,1h0a2,2,0,0,1,.57-.66,1.67,1.67,0,0,1,1.1-.35c.68,0,1.67.44,1.67,2.18v3h-.9V28.61c0-1-.36-1.55-1.09-1.55a1.19,1.19,0,0,0-1.09.82,1.7,1.7,0,0,0-.08.46v3.12H82.7v-3c0-.8-.35-1.37-1-1.37a1.28,1.28,0,0,0-1.14.91,1.37,1.37,0,0,0-.07.45v3h-.89Z"/><path d="M88.74,29.11a1.6,1.6,0,0,0,1.72,1.74,3.41,3.41,0,0,0,1.4-.26l.16.65a4,4,0,0,1-1.68.32A2.35,2.35,0,0,1,87.86,29a2.45,2.45,0,0,1,2.37-2.71,2.12,2.12,0,0,1,2.07,2.37,2.39,2.39,0,0,1,0,.43Zm2.68-.66A1.31,1.31,0,0,0,90.16,27a1.52,1.52,0,0,0-1.41,1.49Z"/><path d="M97.79,24.07v6.09c0,.45,0,1,0,1.3H97l0-.87h0a1.83,1.83,0,0,1-1.7,1A2.31,2.31,0,0,1,93.07,29a2.41,2.41,0,0,1,2.26-2.7,1.67,1.67,0,0,1,1.52.76h0v-3Zm-.92,4.4a1.72,1.72,0,0,0,0-.39,1.36,1.36,0,0,0-1.32-1c-1,0-1.51.83-1.51,1.93s.51,1.88,1.49,1.88a1.39,1.39,0,0,0,1.34-1.11,1.48,1.48,0,0,0,0-.38Z"/><path d="M99.74,25.57a.54.54,0,0,1-.55-.56.57.57,0,1,1,.56.56Zm-.44,5.89v-5h.92v5Z"/><path d="M105.33,31.27a3.46,3.46,0,0,1-1.45.29A2.39,2.39,0,0,1,101.37,29a2.56,2.56,0,0,1,2.71-2.68,2.83,2.83,0,0,1,1.27.27l-.21.7a2.17,2.17,0,0,0-1.06-.24,1.74,1.74,0,0,0-1.78,1.9,1.72,1.72,0,0,0,1.75,1.88,2.69,2.69,0,0,0,1.12-.23Z"/><path d="M110,30.25a8.77,8.77,0,0,0,.07,1.21h-.82l-.09-.64h0a1.85,1.85,0,0,1-1.54.75A1.43,1.43,0,0,1,106,30.13c0-1.22,1.08-1.89,3-1.88v-.1A1,1,0,0,0,107.89,27a2.47,2.47,0,0,0-1.33.38l-.2-.61a3.15,3.15,0,0,1,1.66-.44c1.55,0,1.93,1.05,1.93,2.06Zm-.9-1.36c-1,0-2.13.16-2.13,1.13a.8.8,0,0,0,.85.88,1.27,1.27,0,0,0,1.24-.85.92.92,0,0,0,0-.29Z"/><path d="M111.41,27.79c0-.53,0-.95,0-1.37h.8l0,.81h0a1.75,1.75,0,0,1,1.59-.92,1.48,1.48,0,0,1,1.41,1h0a2.1,2.1,0,0,1,.58-.66,1.67,1.67,0,0,1,1.1-.35c.68,0,1.66.44,1.66,2.18v3h-.89V28.61c0-1-.36-1.55-1.09-1.55a1.21,1.21,0,0,0-1.1.82,1.7,1.7,0,0,0-.07.46v3.12h-.89v-3c0-.8-.36-1.37-1.06-1.37a1.27,1.27,0,0,0-1.13.91,1.37,1.37,0,0,0-.07.45v3h-.9Z"/><path d="M120.61,29.11a1.6,1.6,0,0,0,1.72,1.74,3.35,3.35,0,0,0,1.39-.26l.17.65a4.06,4.06,0,0,1-1.69.32A2.34,2.34,0,0,1,119.73,29a2.45,2.45,0,0,1,2.37-2.71,2.12,2.12,0,0,1,2.07,2.37,2.39,2.39,0,0,1,0,.43Zm2.67-.66A1.3,1.3,0,0,0,122,27a1.51,1.51,0,0,0-1.41,1.49Z"/><path d="M125.3,27.79c0-.53,0-.95,0-1.37h.81l.05.82h0a1.89,1.89,0,0,1,1.67-.93c.7,0,1.78.41,1.78,2.14v3h-.92v-2.9c0-.82-.3-1.5-1.16-1.5a1.32,1.32,0,0,0-1.23.93,1.44,1.44,0,0,0-.06.43v3h-.92Z"/><path d="M132.14,25.22v1.2h1.31v.7h-1.31v2.71c0,.62.18,1,.69,1a1.79,1.79,0,0,0,.53-.06l0,.7a2.61,2.61,0,0,1-.81.12,1.3,1.3,0,0,1-1-.38,2,2,0,0,1-.36-1.32V27.12h-.78v-.7h.78V25.5Z"/><path d="M136.47,31.57A2.4,2.4,0,0,1,134.05,29a2.47,2.47,0,0,1,2.5-2.67A2.38,2.38,0,0,1,139,28.89a2.46,2.46,0,0,1-2.49,2.68Zm0-.68c.87,0,1.53-.83,1.53-2,0-.85-.43-1.93-1.51-1.93S135,28,135,29s.62,1.94,1.51,1.94Z"/><path d="M140,30.52a2.55,2.55,0,0,0,1.22.36c.66,0,1-.33,1-.75s-.26-.67-.93-.92c-.91-.33-1.34-.83-1.34-1.42a1.56,1.56,0,0,1,1.74-1.48,2.32,2.32,0,0,1,1.23.31l-.22.66a2,2,0,0,0-1-.3c-.54,0-.84.32-.84.69s.3.6.95.87c.87.32,1.32.75,1.32,1.5,0,.9-.69,1.52-1.87,1.52a2.89,2.89,0,0,1-1.42-.35Z"/></svg>