<svg xmlns="http://www.w3.org/2000/svg" xmlns:xlink="http://www.w3.org/1999/xlink" id="Layer_1" x="0" y="0" version="1.1" viewBox="0 0 393.25 110.47" xml:space="preserve" style="enable-background:new 0 0 393.25 110.47"><style type="text/css">.st0{fill:#37b34a}.st1{fill:none}</style><switch><g><g><path d="M115.45,56.64H104.9l-5.09-8.35h-3.64v8.35h-9.75V20.23h13.81c9.8,0,15.32,6.21,15.32,14.3c0,5.25-2.3,9.42-6.59,11.78 L115.45,56.64z M99.76,40.52c4.39,0,6-2.46,6-6c0-3.54-1.6-6.05-6-6.05h-3.59v12.05H99.76z"/></g><g><g><path d="M286.62,56.64h-10.55l-5.09-8.35h-3.64v8.35h-9.75V20.23h13.81c9.8,0,15.32,6.21,15.32,14.3 c0,5.25-2.3,9.42-6.59,11.78L286.62,56.64z M270.93,40.52c4.39,0,6-2.46,6-6c0-3.54-1.6-6.05-6-6.05h-3.59v12.05H270.93z" class="st0"/></g></g><path d="M32.77,58.14c-0.16,0.37-0.48,0.37-0.64,0L16.87,21.3H27.1l6.8,17.08l7.82-17.78c0.11-0.27,0.32-0.27,0.43,0l8.19,17.78 l6.48-17.08h9.75L51.51,58.14c-0.16,0.43-0.43,0.43-0.64,0l-9.1-19.55L32.77,58.14z"/><path d="M70.15,21.3h9.75v36.42h-9.75V21.3z"/><path d="M120.11,21.3h25.55v8.19h-15.8v8.46h13.17v7.77h-13.17v3.8h16.55v8.19h-26.29V21.3z"/><path d="M322.61,19.73c0.16-0.37,0.48-0.37,0.64,0l15.26,36.84h-10.23l-6.8-17.08l-7.82,17.78 c-0.11,0.27-0.32,0.27-0.43,0l-8.19-17.78l-6.48,17.08h-9.75l15.05-36.84c0.16-0.43,0.43-0.43,0.64,0l9.1,19.55L322.61,19.73z" class="st0"/><path d="M164.26,57.18h-9.5V20.33h13.47c9.55,0,14.93,6.29,14.93,14.47c0,7.48-4.36,14.42-12.49,14.42c-0.78,0-1.62,0-2.44,0 h-3.97V57.18z M167.59,40.61c4.23,0,5.77-2.46,5.77-5.99c0-3.53-1.55-6.05-5.77-6.05h-3.45v12.04H167.59z"/><path d="M208.68,20.33h9.38v36.39h-9.38V45.16h-12.17v11.56h-9.38V20.33h9.38v16.64h12.17V20.33z" class="st0"/><path d="M230.49,56.72h-9.18l17.06-37.03c0.15-0.37,0.46-0.37,0.62,0l17.01,37.03h-9.69l-1.34-3.1 c0.05,0-13.2,0-13.2,0L230.49,56.72z M238.27,37.88l-3.51,8.45h7.11L238.27,37.88z" class="st0"/><path d="M348.92,56.72h-9.18l17.06-37.03c0.15-0.37,0.46-0.37,0.62,0l17.01,37.03h-9.69l-1.34-3.1 c0.05,0-13.2,0-13.2,0L348.92,56.72z M356.7,37.88l-3.51,8.45h7.11L356.7,37.88z" class="st0"/><g><path d="M203.36,90.79c-0.1,0.24-0.31,0.24-0.41,0l-9.68-23.36h6.49l4.31,10.83l4.96-11.27c0.07-0.17,0.2-0.17,0.27,0l5.2,11.27 l4.11-10.83h6.18l-9.54,23.36c-0.1,0.27-0.27,0.27-0.41,0l-5.77-12.39L203.36,90.79z"/><path d="M297.62,67.7c0.1-0.23,0.3-0.23,0.4,0l9.44,22.8h-6.33l-4.21-10.57l-4.84,11c-0.07,0.17-0.2,0.17-0.27,0l-5.07-11 l-4.01,10.57h-6.03l9.31-22.8c0.1-0.27,0.26-0.27,0.4,0l5.63,12.09L297.62,67.7z"/><path d="M227.06,67.43h6.18v23.09h-6.18V67.43z"/><path d="M258.73,67.43h16.2v5.2h-10.02v5.36h8.35v4.92h-8.35v2.41h10.49v5.2h-16.67V67.43z"/><path d="M308.77,67.43h6.18v23.09h-6.18V67.43z"/><path d="M245.83,72.66h-2.27v7.64h2.27c2.78,0,3.8-1.56,3.8-3.8C249.63,74.26,248.62,72.66,245.83,72.66z" class="st1"/><rect width="6.18" height="3.28" x="237.38" y="87.24"/><path d="M255.85,76.5c0-5.13-3.5-9.07-9.71-9.07h-8.76v17.78l8.49,0.01l3.23,5.3h6.69l-4.11-6.55 C254.39,82.48,255.85,79.83,255.85,76.5z M245.83,80.3h-2.27v-7.64h2.27c2.78,0,3.8,1.6,3.8,3.84 C249.63,78.74,248.62,80.3,245.83,80.3z"/><path d="M327.34,85.29h-2.07V72.66h2.07c2.82,0,4.83,1.41,5.64,3.76l2.68-6.5c-2.02-1.61-4.66-2.49-7.64-2.49h-8.93v23.09h8.08 l2.28-5.54C328.81,85.18,328.11,85.29,327.34,85.29z"/><path d="M350.93,67.72c0.1-0.23,0.3-0.23,0.4,0l9.44,22.8h-6.33l-4.21-10.57l-4.84,11c-0.07,0.17-0.2,0.17-0.27,0 l-5.07-11l-4.01,10.57h-6.03l9.31-22.8c0.1-0.27,0.26-0.27,0.4,0l5.63,12.09L350.93,67.72z" class="st0"/><path d="M355.64,67.52h6.66l3.31,5.82l3.35-5.82h6.2l-6.46,10.38l7.68,12.62h-6.66l-4.5-7.78l-4.59,7.78h-6.2 l7.71-12.35L355.64,67.52z" class="st0"/></g><g><path d="M169.08,79.66h4.17c3.11,0,5.45,2.04,5.45,5.39c0,3.35-2.35,5.39-5.45,5.39h-4.17V79.66z M172.93,88 c1.74,0,2.82-1.16,2.82-2.95c0-1.79-1.08-2.95-2.82-2.95h-0.97V88H172.93z"/><path d="M179.98,79.66h7.56v2.42h-4.68v2.51h3.9v2.3h-3.9v1.13h4.9v2.43h-7.78V79.66z"/></g><g><g><path d="M170.82,40.25l0,8.97h-6.45l0.01,8.1h-9.59v-8.24h-6.55v-8.82h6.55v-7.24h9.43v7.24" class="st0"/></g></g></g></switch></svg>