<svg xmlns="http://www.w3.org/2000/svg" xmlns:xlink="http://www.w3.org/1999/xlink" id="Layer_1" x="0" y="0" version="1.1" viewBox="0 0 393.25 75.85" xml:space="preserve" style="enable-background:new 0 0 393.25 75.85"><style type="text/css">.st0{fill:#37b34a}</style><switch><g><g><path d="M115.45,56.64H104.9l-5.09-8.35h-3.64v8.35h-9.75V20.23h13.81c9.8,0,15.32,6.21,15.32,14.3c0,5.25-2.3,9.42-6.59,11.78 L115.45,56.64z M99.76,40.52c4.39,0,6-2.46,6-6c0-3.54-1.6-6.05-6-6.05h-3.59v12.05H99.76z"/></g><g><g><path d="M286.62,56.64h-10.55l-5.09-8.35h-3.64v8.35h-9.75V20.23h13.81c9.8,0,15.32,6.21,15.32,14.3 c0,5.25-2.3,9.42-6.59,11.78L286.62,56.64z M270.93,40.52c4.39,0,6-2.46,6-6c0-3.54-1.6-6.05-6-6.05h-3.59v12.05H270.93z" class="st0"/></g></g><path d="M32.77,58.14c-0.16,0.37-0.48,0.37-0.64,0L16.87,21.3H27.1l6.8,17.08l7.82-17.78c0.11-0.27,0.32-0.27,0.43,0l8.19,17.78 l6.48-17.08h9.75L51.51,58.14c-0.16,0.43-0.43,0.43-0.64,0l-9.1-19.55L32.77,58.14z"/><path d="M70.15,21.3h9.75v36.42h-9.75V21.3z"/><path d="M120.11,21.3h25.55v8.19h-15.8v8.46h13.17v7.77h-13.17v3.8h16.55v8.19h-26.29V21.3z"/><path d="M322.61,19.73c0.16-0.37,0.48-0.37,0.64,0l15.26,36.84h-10.23l-6.8-17.08l-7.82,17.78 c-0.11,0.27-0.32,0.27-0.43,0l-8.19-17.78l-6.48,17.08h-9.75l15.05-36.84c0.16-0.43,0.43-0.43,0.64,0l9.1,19.55L322.61,19.73z" class="st0"/><path d="M164.26,57.18h-9.5V20.33h13.47c9.55,0,14.93,6.29,14.93,14.47c0,7.48-4.36,14.42-12.49,14.42c-0.78,0-1.62,0-2.44,0 h-3.97V57.18z M167.59,40.61c4.23,0,5.77-2.46,5.77-5.99c0-3.53-1.55-6.05-5.77-6.05h-3.45v12.04H167.59z"/><path d="M208.68,20.33h9.38v36.39h-9.38V45.16h-12.17v11.56h-9.38V20.33h9.38v16.64h12.17V20.33z" class="st0"/><path d="M230.49,56.72h-9.18l17.06-37.03c0.15-0.37,0.46-0.37,0.62,0l17.01,37.03h-9.69l-1.34-3.1 c0.05,0-13.2,0-13.2,0L230.49,56.72z M238.27,37.88l-3.51,8.45h7.11L238.27,37.88z" class="st0"/><path d="M348.92,56.72h-9.18l17.06-37.03c0.15-0.37,0.46-0.37,0.62,0l17.01,37.03h-9.69l-1.34-3.1 c0.05,0-13.2,0-13.2,0L348.92,56.72z M356.7,37.88l-3.51,8.45h7.11L356.7,37.88z" class="st0"/><g><g><path d="M170.82,40.25l0,8.97h-6.45l0.01,8.1h-9.59v-8.24h-6.55v-8.82h6.55v-7.24h9.43v7.24" class="st0"/></g></g></g></switch></svg>